<svg width="137" height="28" viewBox="0 0 137 28" fill="none" xmlns="http://www.w3.org/2000/svg">
<path d="M14.0647 28C9.99473 28 6.6331 26.663 3.97986 23.9891C1.32662 21.3151 0 18.0173 0 14.0955C0 10.1483 1.32662 6.85039 3.97986 4.20191C6.6331 1.52797 9.99473 0.190996 14.0647 0.190996C16.5119 0.190996 18.7659 0.763984 20.8266 1.90996C22.9132 3.03047 24.536 4.55844 25.6952 6.49386L21.0971 9.12961C20.4274 7.9327 19.4743 7.00318 18.2378 6.34106C17.0013 5.65348 15.6103 5.30969 14.0647 5.30969C11.4373 5.30969 9.3121 6.1246 7.68924 7.75443C6.09215 9.38427 5.2936 11.498 5.2936 14.0955C5.2936 16.6676 6.09215 18.7685 7.68924 20.3984C9.3121 22.0282 11.4373 22.8431 14.0647 22.8431C15.6103 22.8431 17.0013 22.5121 18.2378 21.8499C19.5 21.1623 20.4531 20.2328 21.0971 19.0614L25.6952 21.6971C24.536 23.6326 22.9261 25.1733 20.8653 26.3192C18.8045 27.4397 16.5377 28 14.0647 28Z" fill="#1A1A1A"/>
<path d="M43.3806 25.0969C41.3971 27.0323 38.9757 28 36.1164 28C33.2571 28 30.8357 27.0323 28.8522 25.0969C26.8944 23.136 25.9156 20.7422 25.9156 17.9154C25.9156 15.0887 26.8944 12.7076 28.8522 10.7722C30.8357 8.81128 33.2571 7.83083 36.1164 7.83083C38.9757 7.83083 41.3971 8.81128 43.3806 10.7722C45.3641 12.7076 46.3558 15.0887 46.3558 17.9154C46.3558 20.7422 45.3641 23.136 43.3806 25.0969ZM32.3684 21.6971C33.373 22.6903 34.6223 23.1869 36.1164 23.1869C37.6104 23.1869 38.8598 22.6903 39.8644 21.6971C40.869 20.704 41.3713 19.4434 41.3713 17.9154C41.3713 16.3875 40.869 15.1269 39.8644 14.1337C38.8598 13.1405 37.6104 12.6439 36.1164 12.6439C34.6223 12.6439 33.373 13.1405 32.3684 14.1337C31.3895 15.1269 30.9001 16.3875 30.9001 17.9154C30.9001 19.4434 31.3895 20.704 32.3684 21.6971Z" fill="#1A1A1A"/>
<path d="M58.5662 13.1023H54.1999V21.0478C54.1999 21.7099 54.3674 22.1937 54.7022 22.4993C55.0371 22.8049 55.5265 22.9832 56.1705 23.0341C56.8145 23.0596 57.6131 23.0468 58.5662 22.9959V27.4652C55.1402 27.8472 52.7188 27.5289 51.302 26.5102C49.911 25.4916 49.2154 23.6708 49.2154 21.0478V13.1023H45.8538V8.36562H49.2154V4.5075L54.1999 3.01774V8.36562H58.5662V13.1023Z" fill="#1A1A1A"/>
<path d="M76.0052 25.0969C74.0217 27.0323 71.6003 28 68.741 28C65.8817 28 63.4603 27.0323 61.4768 25.0969C59.5191 23.136 58.5402 20.7422 58.5402 17.9154C58.5402 15.0887 59.5191 12.7076 61.4768 10.7722C63.4603 8.81128 65.8817 7.83083 68.741 7.83083C71.6003 7.83083 74.0217 8.81128 76.0052 10.7722C77.9887 12.7076 78.9805 15.0887 78.9805 17.9154C78.9805 20.7422 77.9887 23.136 76.0052 25.0969ZM64.993 21.6971C65.9976 22.6903 67.247 23.1869 68.741 23.1869C70.2351 23.1869 71.4844 22.6903 72.4891 21.6971C73.4937 20.704 73.996 19.4434 73.996 17.9154C73.996 16.3875 73.4937 15.1269 72.4891 14.1337C71.4844 13.1405 70.2351 12.6439 68.741 12.6439C67.247 12.6439 65.9976 13.1405 64.993 14.1337C64.0141 15.1269 63.5247 16.3875 63.5247 17.9154C63.5247 19.4434 64.0141 20.704 64.993 21.6971Z" fill="#1A1A1A"/>
<path d="M91.2968 7.83083C93.4091 7.83083 95.1478 8.53115 96.5131 9.93179C97.9041 11.3324 98.5996 13.2678 98.5996 15.7381V27.4652H93.6152V16.3493C93.6152 15.0759 93.2674 14.1082 92.5719 13.4461C91.8764 12.7585 90.949 12.4147 89.7898 12.4147C88.5019 12.4147 87.4715 12.8095 86.6987 13.5989C85.9259 14.3884 85.5395 15.5725 85.5395 17.1514V27.4652H80.555V8.36562H85.5395V10.5048C86.7502 8.72215 88.6693 7.83083 91.2968 7.83083Z" fill="#1A1A1A"/>
<path d="M125.178 27.4652L123.555 22.6521H112.774L111.151 27.4652H105.394L114.861 0.725784H121.468L130.973 27.4652H125.178ZM114.474 17.7244H121.893L118.184 6.79946L114.474 17.7244Z" fill="#5E5E5E"/>
<path d="M133.909 6.07367C133.085 6.07367 132.363 5.78081 131.745 5.19509C131.153 4.5839 130.856 3.87085 130.856 3.05593C130.856 2.24102 131.153 1.52797 131.745 0.91678C132.363 0.305593 133.085 0 133.909 0C134.759 0 135.48 0.305593 136.073 0.91678C136.691 1.52797 137 2.24102 137 3.05593C137 3.87085 136.691 4.5839 136.073 5.19509C135.48 5.78081 134.759 6.07367 133.909 6.07367ZM131.436 27.4652V8.36562H136.42V27.4652H131.436Z" fill="#5E5E5E"/>
</svg>
