<svg width="137" height="29" viewBox="0 0 137 29" fill="none" xmlns="http://www.w3.org/2000/svg">
<path d="M14.0647 28.2059C9.99473 28.2059 6.6331 26.8591 3.97986 24.1655C1.32662 21.4719 0 18.1498 0 14.1991C0 10.2229 1.32662 6.90076 3.97986 4.23281C6.6331 1.5392 9.99473 0.1924 14.0647 0.1924C16.5119 0.1924 18.7659 0.769601 20.8266 1.924C22.9132 3.05275 24.536 4.59195 25.6952 6.54161L21.0971 9.19673C20.4274 7.99103 19.4743 7.05468 18.2378 6.38769C17.0013 5.69505 15.6103 5.34873 14.0647 5.34873C11.4373 5.34873 9.3121 6.16964 7.68924 7.81145C6.09215 9.45327 5.2936 11.5825 5.2936 14.1991C5.2936 16.7901 6.09215 18.9065 7.68924 20.5484C9.3121 22.1902 11.4373 23.0111 14.0647 23.0111C15.6103 23.0111 17.0013 22.6776 18.2378 22.0106C19.5 21.318 20.4531 20.3816 21.0971 19.2015L25.6952 21.8567C24.536 23.8063 22.9261 25.3584 20.8653 26.5128C18.8045 27.6415 16.5377 28.2059 14.0647 28.2059Z" fill="white"/>
<path d="M43.3806 25.2814C41.3971 27.2311 38.9757 28.2059 36.1164 28.2059C33.2571 28.2059 30.8357 27.2311 28.8522 25.2814C26.8944 23.3061 25.9156 20.8947 25.9156 18.0471C25.9156 15.1996 26.8944 12.801 28.8522 10.8514C30.8357 8.87607 33.2571 7.88841 36.1164 7.88841C38.9757 7.88841 41.3971 8.87607 43.3806 10.8514C45.3641 12.801 46.3558 15.1996 46.3558 18.0471C46.3558 20.8947 45.3641 23.3061 43.3806 25.2814ZM32.3684 21.8567C33.373 22.8572 34.6223 23.3574 36.1164 23.3574C37.6104 23.3574 38.8598 22.8572 39.8644 21.8567C40.869 20.8562 41.3713 19.5864 41.3713 18.0471C41.3713 16.5079 40.869 15.2381 39.8644 14.2376C38.8598 13.2371 37.6104 12.7369 36.1164 12.7369C34.6223 12.7369 33.373 13.2371 32.3684 14.2376C31.3895 15.2381 30.9001 16.5079 30.9001 18.0471C30.9001 19.5864 31.3895 20.8562 32.3684 21.8567Z" fill="white"/>
<path d="M58.5662 13.1987H54.1999V21.2025C54.1999 21.8695 54.3674 22.3569 54.7022 22.6648C55.0371 22.9726 55.5265 23.1522 56.1705 23.2035C56.8145 23.2291 57.6131 23.2163 58.5662 23.165V27.6672C55.1402 28.052 52.7188 27.7313 51.302 26.7052C49.911 25.679 49.2154 23.8448 49.2154 21.2025V13.1987H45.8538V8.42713H49.2154V4.54065L54.1999 3.03992V8.42713H58.5662V13.1987Z" fill="white"/>
<path d="M76.0052 25.2814C74.0217 27.2311 71.6003 28.2059 68.741 28.2059C65.8817 28.2059 63.4603 27.2311 61.4768 25.2814C59.5191 23.3061 58.5402 20.8947 58.5402 18.0471C58.5402 15.1996 59.5191 12.801 61.4768 10.8514C63.4603 8.87607 65.8817 7.88841 68.741 7.88841C71.6003 7.88841 74.0217 8.87607 76.0052 10.8514C77.9887 12.801 78.9805 15.1996 78.9805 18.0471C78.9805 20.8947 77.9887 23.3061 76.0052 25.2814ZM64.993 21.8567C65.9976 22.8572 67.247 23.3574 68.741 23.3574C70.2351 23.3574 71.4844 22.8572 72.4891 21.8567C73.4937 20.8562 73.996 19.5864 73.996 18.0471C73.996 16.5079 73.4937 15.2381 72.4891 14.2376C71.4844 13.2371 70.2351 12.7369 68.741 12.7369C67.247 12.7369 65.9976 13.2371 64.993 14.2376C64.0141 15.2381 63.5247 16.5079 63.5247 18.0471C63.5247 19.5864 64.0141 20.8562 64.993 21.8567Z" fill="white"/>
<path d="M91.2968 7.88841C93.4091 7.88841 95.1478 8.59388 96.5131 10.0048C97.9041 11.4158 98.5996 13.3654 98.5996 15.8538V27.6672H93.6152V16.4695C93.6152 15.1868 93.2674 14.212 92.5719 13.545C91.8764 12.8523 90.949 12.506 89.7898 12.506C88.5019 12.506 87.4715 12.9036 86.6987 13.6989C85.9259 14.4942 85.5395 15.687 85.5395 17.2775V27.6672H80.555V8.42713H85.5395V10.582C86.7502 8.78628 88.6693 7.88841 91.2968 7.88841Z" fill="white"/>
<path d="M125.178 27.6672L123.555 22.8187H112.774L111.151 27.6672H105.394L114.861 0.731121H121.468L130.973 27.6672H125.178ZM114.474 17.8547H121.893L118.184 6.84945L114.474 17.8547Z" fill="#D5F102"/>
<path d="M133.909 6.11833C133.085 6.11833 132.363 5.82332 131.745 5.23329C131.153 4.61761 130.856 3.89931 130.856 3.0784C130.856 2.2575 131.153 1.5392 131.745 0.923521C132.363 0.30784 133.085 0 133.909 0C134.759 0 135.48 0.30784 136.073 0.923521C136.691 1.5392 137 2.2575 137 3.0784C137 3.89931 136.691 4.61761 136.073 5.23329C135.48 5.82332 134.759 6.11833 133.909 6.11833ZM131.436 27.6672V8.42713H136.42V27.6672H131.436Z" fill="#D5F102"/>
</svg>
