<svg width="527" height="111" viewBox="0 0 527 111" fill="none" xmlns="http://www.w3.org/2000/svg">
<path d="M55.446 111C39.4012 111 26.149 105.663 15.6894 94.9904C5.2298 84.3173 0 71.1538 0 55.5C0 39.7445 5.2298 26.581 15.6894 16.0096C26.149 5.33654 39.4012 0 55.446 0C65.0932 0 73.9788 2.28709 82.1028 6.86127C90.3283 11.3338 96.7259 17.4327 101.296 25.158L83.1691 35.6786C80.5288 30.9011 76.7714 27.1909 71.8971 24.5481C67.0227 21.8036 61.539 20.4313 55.446 20.4313C45.088 20.4313 36.7102 23.6841 30.3125 30.1896C24.0165 36.6951 20.8684 45.1319 20.8684 55.5C20.8684 65.7665 24.0165 74.1525 30.3125 80.658C36.7102 87.1635 45.088 90.4162 55.446 90.4162C61.539 90.4162 67.0227 89.0948 71.8971 86.4519C76.873 83.7074 80.6303 79.9973 83.1691 75.3214L101.296 85.842C96.7259 93.5673 90.3791 99.717 82.2551 104.291C74.1312 108.764 65.1948 111 55.446 111Z" fill="white"/>
<path d="M171.015 99.4121C163.196 107.137 153.65 111 142.378 111C131.106 111 121.56 107.137 113.741 99.4121C106.023 91.5852 102.164 82.0302 102.164 70.7473C102.164 59.4643 106.023 49.9602 113.741 42.2349C121.56 34.408 131.106 30.4945 142.378 30.4945C153.65 30.4945 163.196 34.408 171.015 42.2349C178.834 49.9602 182.744 59.4643 182.744 70.7473C182.744 82.0302 178.834 91.5852 171.015 99.4121ZM127.603 85.842C131.563 89.8063 136.488 91.7885 142.378 91.7885C148.268 91.7885 153.193 89.8063 157.153 85.842C161.114 81.8777 163.094 76.8462 163.094 70.7473C163.094 64.6484 161.114 59.6168 157.153 55.6525C153.193 51.6882 148.268 49.706 142.378 49.706C136.488 49.706 131.563 51.6882 127.603 55.6525C123.744 59.6168 121.814 64.6484 121.814 70.7473C121.814 76.8462 123.744 81.8777 127.603 85.842Z" fill="white"/>
<path d="M230.88 51.5357H213.667V83.25C213.667 85.8929 214.327 87.8242 215.647 89.044C216.967 90.2637 218.897 90.9753 221.435 91.1786C223.974 91.2802 227.122 91.2294 230.88 91.0261V108.865C217.373 110.39 207.828 109.119 202.243 105.054C196.759 100.988 194.017 93.7198 194.017 83.25V51.5357H180.765V32.6291H194.017V17.2294L213.667 11.283V32.6291H230.88V51.5357Z" fill="white"/>
<path d="M299.628 99.4121C291.808 107.137 282.263 111 270.991 111C259.719 111 250.173 107.137 242.354 99.4121C234.636 91.5852 230.777 82.0302 230.777 70.7473C230.777 59.4643 234.636 49.9602 242.354 42.2349C250.173 34.408 259.719 30.4945 270.991 30.4945C282.263 30.4945 291.808 34.408 299.628 42.2349C307.447 49.9602 311.357 59.4643 311.357 70.7473C311.357 82.0302 307.447 91.5852 299.628 99.4121ZM256.215 85.842C260.176 89.8063 265.101 91.7885 270.991 91.7885C276.881 91.7885 281.806 89.8063 285.766 85.842C289.727 81.8777 291.707 76.8462 291.707 70.7473C291.707 64.6484 289.727 59.6168 285.766 55.6525C281.806 51.6882 276.881 49.706 270.991 49.706C265.101 49.706 260.176 51.6882 256.215 55.6525C252.356 59.6168 250.427 64.6484 250.427 70.7473C250.427 76.8462 252.356 81.8777 256.215 85.842Z" fill="white"/>
<path d="M359.91 30.4945C368.237 30.4945 375.092 33.2898 380.474 38.8805C385.958 44.4712 388.699 52.1964 388.699 62.0563V108.865H369.05V64.4959C369.05 59.4135 367.679 55.5508 364.937 52.908C362.195 50.1635 358.539 48.7912 353.969 48.7912C348.892 48.7912 344.83 50.3668 341.784 53.5179C338.737 56.669 337.214 61.3956 337.214 67.6978V108.865H317.564V32.6291H337.214V41.1676C341.987 34.0522 349.552 30.4945 359.91 30.4945Z" fill="white"/>
<path d="M474.49 108.865L468.092 89.6538H425.594L419.196 108.865H396.5L433.819 2.13461H459.867L497.339 108.865H474.49ZM432.296 69.9849H461.542L446.919 26.3778L432.296 69.9849Z" fill="#B9F102"/>
<path d="M500.076 2.13461H521.097V108.865H500.076V2.13461Z" fill="#B9F102"/>
</svg>
