<svg width="107" height="42" viewBox="0 0 107 42" fill="none" xmlns="http://www.w3.org/2000/svg">
<path d="M36.3483 11.7647H44.8656L30.0503 41.1765H22.6727L20.3335 23.4118L12.0561 41.1765H4.25863L0 11.7647H7.73751L9.89682 29.8235L18.2941 11.7647H25.7917L28.131 29.8824L36.3483 11.7647Z" fill="#1A1A1A"/>
<path d="M78.9131 0H86.6506L67.1376 41.1765H59.76L57.4207 23.4118L49.1434 41.1765H41.3459L37.0873 11.7647H44.8248L46.9841 29.8235L55.3814 11.7647H62.879L65.2182 29.8824L78.9131 0Z" fill="#1A1A1A"/>
<path d="M93.9082 10.9412C98.1869 10.9412 101.466 12.549 103.745 15.7647C106.064 18.9412 106.864 22.6667 106.144 26.9412C105.465 31.098 103.605 34.6471 100.566 37.5882C97.5271 40.5294 93.7883 42 89.3497 42C85.0311 42 81.9121 40.3922 79.9927 37.1765L79.2729 41.1765H71.5354L78.9131 0H86.6506L83.9514 14.9412C86.6706 12.2745 89.9895 10.9412 93.9082 10.9412ZM98.4068 26.4118C98.8466 23.9412 98.4268 21.9608 97.1472 20.4706C95.9076 18.9412 94.0882 18.1765 91.6889 18.1765C89.2897 18.1765 87.1704 18.9412 85.331 20.4706C83.4916 22 82.3519 24 81.9121 26.4706C81.4722 28.9412 81.9121 30.9412 83.2317 32.4706C84.5512 34 86.4106 34.7647 88.8099 34.7647C91.2091 34.7647 93.3084 34 95.1078 32.4706C96.9073 30.902 98.0069 28.8824 98.4068 26.4118Z" fill="#5E5E5E"/>
</svg>
